<!-- Generated by IcoMoon.io -->
<svg version="1.1" xmlns="http://www.w3.org/2000/svg" width="59" height="32" viewBox="0 0 59 32">
<title>firm-1</title>
<path fill="#8e8f99" d="M24.667 7.667l2.336 2.225-4.336-0.002v10.797h11.333v-4.128l2.333 2.223v-11.115h-11.667zM33.897 16.297l-6.623-6.31h6.623v6.31zM31.841 19.107h-7.381v-7.261h0.522v6.77h6.859v0.492zM25.932 22.687l-0.275-0.566h-0.227l0.399 0.749v0.436h0.206v-0.436l0.399-0.749h-0.226l-0.275 0.566zM26.946 22.121h0.049l0.448 1.185h-0.215l-0.096-0.277h-0.459l-0.096 0.277h-0.214l0.446-1.185h0.137zM26.729 22.867h0.347l-0.173-0.503-0.173 0.503zM28.161 22.67c-0.003-0.004-0.012-0.015-0.020-0.026l-0.005-0.007c-0.026-0.034-0.050-0.072-0.069-0.113l-0.002-0.004c-0.016-0.034-0.025-0.075-0.025-0.117 0-0 0-0 0-0v0c0-0.062 0.013-0.115 0.038-0.159s0.062-0.079 0.107-0.102l0.001-0.001c0.047-0.024 0.101-0.037 0.163-0.037 0.060 0 0.112 0.012 0.156 0.037 0.082 0.043 0.138 0.129 0.138 0.227 0 0.037-0.008 0.072-0.022 0.103l0.001-0.002c-0.015 0.033-0.034 0.061-0.057 0.085l0-0c-0.025 0.026-0.052 0.050-0.081 0.072l-0.002 0.001-0.082 0.060 0.235 0.277c0.032-0.062 0.051-0.135 0.051-0.213 0-0.003-0-0.006-0-0.009v0h0.169c0 0.058-0.006 0.112-0.017 0.163-0.016 0.075-0.046 0.14-0.088 0.197l0.001-0.001 0.173 0.205h-0.227l-0.069-0.081c-0.035 0.027-0.075 0.049-0.118 0.066l-0.003 0.001c-0.053 0.019-0.115 0.031-0.18 0.031-0.001 0-0.003 0-0.004-0h0c-0.079 0-0.147-0.014-0.204-0.043-0.055-0.027-0.101-0.068-0.133-0.117l-0.001-0.001c-0.029-0.048-0.047-0.106-0.047-0.168 0-0.002 0-0.004 0-0.006v0c0-0.048 0.010-0.091 0.030-0.127s0.048-0.071 0.082-0.103c0.032-0.029 0.069-0.058 0.11-0.087zM28.258 22.79l-0.025 0.018c-0.025 0.019-0.046 0.042-0.064 0.067l-0.001 0.001c-0.021 0.031-0.033 0.069-0.033 0.11 0 0.033 0.008 0.064 0.023 0.091l-0.001-0.001c0.016 0.029 0.038 0.051 0.065 0.067l0.001 0c0.029 0.015 0.063 0.024 0.1 0.024 0.002 0 0.005-0 0.007-0h-0c0.045 0 0.089-0.010 0.131-0.030 0.023-0.011 0.043-0.024 0.061-0.038l-0.001 0.001-0.263-0.31zM28.305 22.573l0.073-0.049c0.029-0.018 0.053-0.040 0.073-0.066l0-0.001c0.014-0.022 0.022-0.049 0.022-0.078 0-0.002-0-0.004-0-0.006v0c-0.002-0.064-0.054-0.114-0.118-0.114-0.002 0-0.005 0-0.007 0h0c-0.001-0-0.002-0-0.003-0-0.048 0-0.090 0.028-0.109 0.069l-0 0.001c-0.009 0.020-0.014 0.043-0.014 0.067 0 0.028 0.007 0.055 0.020 0.079l-0-0.001c0.012 0.026 0.029 0.052 0.051 0.081l0.013 0.017zM30.378 22.921h-0.204c-0.005 0.048-0.018 0.093-0.038 0.133l0.001-0.002c-0.018 0.035-0.047 0.063-0.081 0.080l-0.001 0c-0.038 0.018-0.082 0.028-0.128 0.028-0.004 0-0.009-0-0.013-0l0.001 0c-0.002 0-0.004 0-0.007 0-0.043 0-0.083-0.011-0.118-0.029l0.001 0.001c-0.035-0.020-0.063-0.047-0.084-0.080l-0.001-0.001c-0.022-0.036-0.039-0.077-0.048-0.122l-0-0.003c-0.010-0.047-0.016-0.101-0.016-0.157 0-0.002 0-0.004 0-0.006v0-0.1c0-0.063 0.006-0.119 0.017-0.168s0.029-0.091 0.053-0.124c0.022-0.032 0.051-0.058 0.086-0.076l0.001-0.001c0.034-0.016 0.074-0.026 0.116-0.026 0.002 0 0.005 0 0.007 0h-0c0.057 0 0.103 0.010 0.138 0.029s0.062 0.047 0.080 0.083c0.018 0.036 0.030 0.080 0.036 0.131h0.203c-0.007-0.078-0.031-0.15-0.068-0.213l0.001 0.002c-0.036-0.061-0.088-0.11-0.149-0.143l-0.002-0.001c-0.065-0.033-0.142-0.052-0.223-0.052-0.006 0-0.011 0-0.017 0l0.001-0c-0.074 0-0.141 0.013-0.201 0.039s-0.11 0.063-0.152 0.113c-0.042 0.050-0.076 0.108-0.097 0.173l-0.001 0.004c-0.022 0.069-0.033 0.146-0.033 0.231v0.099c0 0.085 0.011 0.162 0.033 0.231s0.054 0.128 0.096 0.177c0.042 0.048 0.092 0.086 0.15 0.112s0.125 0.039 0.198 0.039c0.095 0 0.177-0.017 0.243-0.052s0.118-0.082 0.155-0.143c0.037-0.061 0.059-0.13 0.065-0.207zM31.508 22.746v-0.065c0-0.090-0.012-0.17-0.036-0.24-0.022-0.070-0.056-0.131-0.101-0.182l0.001 0.001c-0.042-0.049-0.094-0.088-0.153-0.114l-0.003-0.001c-0.060-0.027-0.127-0.040-0.2-0.040s-0.139 0.013-0.199 0.040c-0.060 0.026-0.112 0.064-0.156 0.115s-0.077 0.111-0.101 0.182c-0.023 0.069-0.036 0.147-0.036 0.229 0 0.004 0 0.008 0 0.011v-0.001 0.065c0 0.090 0.012 0.17 0.036 0.241 0.023 0.070 0.058 0.13 0.103 0.182l-0.001-0.001c0.044 0.050 0.096 0.088 0.156 0.115s0.127 0.039 0.199 0.039c0.073 0 0.14-0.013 0.2-0.039s0.112-0.065 0.155-0.115c0.043-0.050 0.077-0.11 0.1-0.181s0.035-0.151 0.035-0.241zM31.304 22.68v0.067c0 0.066-0.007 0.125-0.020 0.176-0.011 0.049-0.030 0.092-0.056 0.131l0.001-0.001c-0.023 0.033-0.053 0.060-0.088 0.078l-0.001 0.001c-0.034 0.016-0.074 0.026-0.116 0.026-0.002 0-0.004-0-0.005-0h0c-0.002 0-0.003 0-0.005 0-0.042 0-0.082-0.010-0.117-0.027l0.002 0.001c-0.037-0.019-0.067-0.046-0.090-0.078l-0.001-0.001c-0.025-0.037-0.045-0.080-0.056-0.127l-0.001-0.003c-0.013-0.050-0.020-0.108-0.020-0.167 0-0.003 0-0.006 0-0.010v0-0.067c0-0.066 0.007-0.124 0.020-0.175s0.032-0.093 0.056-0.128c0.023-0.033 0.053-0.059 0.089-0.077l0.001-0.001c0.034-0.017 0.074-0.027 0.116-0.027 0.002 0 0.003 0 0.005 0h-0c0.045 0 0.085 0.009 0.121 0.027s0.066 0.043 0.090 0.078c0.025 0.034 0.044 0.077 0.056 0.128 0.013 0.051 0.020 0.109 0.020 0.175z"></path>
</svg>
