<!-- Generated by IcoMoon.io -->
<svg version="1.1" xmlns="http://www.w3.org/2000/svg" width="73" height="32" viewBox="0 0 73 32">
<title>icon-strategy</title>
<path fill="#f4f4fd" d="M2.133 0h68.267c0.589 0 1.067 0.478 1.067 1.067v27.733c0 0.589-0.478 1.067-1.067 1.067h-68.267c-0.589 0-1.067-0.478-1.067-1.067v-27.733c0-0.589 0.478-1.067 1.067-1.067z"></path>
<path fill="#2e2f42" d="M44.146 18.185l-4.503-4.536 0.5-2.461c0.129 0.050 0.266 0.077 0.405 0.077h0.003c0.004 0 0.009 0 0.014 0 0.636 0 1.151-0.516 1.151-1.151s-0.516-1.151-1.151-1.151c-0.636 0-1.151 0.516-1.151 1.151 0 0.138 0.024 0.271 0.069 0.394l-0.003-0.008-2.645 0.323-4.315-4.337c-0.051-0.052-0.122-0.085-0.201-0.085h-0c-0.075 0.001-0.146 0.030-0.199 0.083l-0.807 0.802c-0.052 0.051-0.083 0.123-0.083 0.201s0.032 0.15 0.083 0.201v0l0.434 0.44c-0.61 1.1-0.968 2.412-0.968 3.807 0 2.19 0.883 4.173 2.313 5.614l-0.001-0c0.023 0.022 0.049 0.039 0.078 0.052-0.017 0.087-0.027 0.188-0.028 0.291v3.3h-3.413c-0.785 0.001-1.421 0.637-1.422 1.422v0.569c0 0.157 0.127 0.285 0.285 0.285h13.085c0.157 0 0.284-0.127 0.284-0.285v-0.569c-0.001-0.785-0.637-1.421-1.422-1.422h-3.413v-1.462c0.535 0.112 1.079 0.169 1.626 0.171 1.376-0.002 2.669-0.354 3.796-0.972l-0.041 0.021 0.436 0.439c0.053 0.054 0.125 0.085 0.201 0.085 0.075-0.001 0.146-0.030 0.199-0.083l0.807-0.802c0.052-0.051 0.083-0.123 0.083-0.201s-0.032-0.15-0.083-0.201v0zM40.149 9.724c0.103-0.102 0.245-0.165 0.401-0.165 0.314 0 0.569 0.255 0.569 0.569s-0.255 0.569-0.569 0.569c-0 0-0 0-0 0h-0.002c-0.313-0.002-0.566-0.256-0.566-0.569 0-0.158 0.064-0.3 0.168-0.403l0-0h-0.001zM39.48 11.594l-0.319 1.571-0.627-0.63 0.946-0.941zM39.157 11.113l-1.024 1.018-0.792-0.797 1.816-0.221zM40.535 21.76c0.471 0 0.853 0.382 0.853 0.853v0.285h-12.515v-0.285c0-0.471 0.382-0.853 0.853-0.853v0h10.809zM36.553 20.622v0.569h-2.845v-0.569h2.845zM33.709 20.053v-2.162c0-0.69 0.638-1.251 1.422-1.251s1.422 0.562 1.422 1.251v2.162h-2.845zM37.122 19.149v-1.257c0-1.004-0.893-1.82-1.991-1.82-0.009-0-0.020-0-0.031-0-0.721 0-1.355 0.377-1.714 0.944l-0.005 0.008c-1.258-1.324-2.033-3.118-2.033-5.093 0-1.234 0.302-2.398 0.837-3.421l-0.019 0.041 9.921 9.978c-0.972 0.505-2.122 0.801-3.342 0.801-0.575 0-1.135-0.066-1.673-0.191l0.050 0.010zM43.143 18.784l-0.401-0.403-10.83-10.894 0.402-0.401 4.232 4.256c0.002 0 0.003 0.003 0.005 0.005l6.994 7.035-0.404 0.401z"></path>
<path fill="#4d5ae5" d="M35.134 17.209h-0.003c-0 0-0.001 0-0.001 0-0.471 0-0.853 0.382-0.853 0.853s0.381 0.853 0.852 0.853h0.002c0 0 0.001 0 0.001 0 0.471 0 0.853-0.382 0.853-0.853s-0.381-0.853-0.852-0.853h-0zM35.333 18.264c-0.051 0.051-0.122 0.083-0.201 0.083-0.157 0-0.285-0.127-0.285-0.285s0.127-0.284 0.283-0.285h0c0.156 0.001 0.283 0.128 0.283 0.285 0 0.079-0.032 0.15-0.084 0.202v0h0.003z"></path>
</svg>
