<!-- Generated by IcoMoon.io -->
<svg version="1.1" xmlns="http://www.w3.org/2000/svg" width="32" height="32" viewBox="0 0 32 32">
<title>instagram</title>
<path fill="#f4f4fd" d="M26.645 6.272c-0.049-1.133-0.233-1.913-0.496-2.588-0.283-0.741-0.702-1.373-1.232-1.892l-0.001-0.001c-0.52-0.527-1.149-0.945-1.852-1.216l-0.036-0.012c-0.68-0.263-1.453-0.447-2.587-0.496-1.144-0.053-1.508-0.067-4.401-0.067-2.897 0-3.26 0.013-4.397 0.063-1.133 0.049-1.912 0.233-2.587 0.496-0.741 0.282-1.373 0.702-1.892 1.232l-0.001 0.001c-0.528 0.52-0.946 1.149-1.217 1.852l-0.012 0.036c-0.263 0.68-0.445 1.453-0.496 2.587-0.053 1.143-0.067 1.507-0.067 4.401 0 2.897 0.013 3.26 0.063 4.397 0.049 1.133 0.233 1.913 0.496 2.588 0.271 0.717 0.692 1.359 1.233 1.892 0.533 0.541 1.18 0.963 1.888 1.229 0.68 0.263 1.453 0.447 2.588 0.496 1.137 0.051 1.5 0.063 4.397 0.063 2.896 0 3.259-0.013 4.396-0.063 1.133-0.049 1.913-0.233 2.588-0.496 1.438-0.567 2.555-1.683 3.108-3.084l0.013-0.037c0.263-0.68 0.447-1.453 0.496-2.588 0.051-1.137 0.063-1.5 0.063-4.397 0-2.896-0.004-3.259-0.053-4.396zM24.725 14.981c-0.047 1.043-0.221 1.605-0.368 1.98-0.367 0.934-1.092 1.659-2.001 2.018l-0.024 0.008c-0.375 0.145-0.941 0.32-1.979 0.365-1.125 0.051-1.463 0.063-4.309 0.063s-3.188-0.013-4.309-0.063c-1.043-0.045-1.605-0.22-1.98-0.367-0.481-0.179-0.89-0.451-1.225-0.795l-0.001-0.001c-0.344-0.336-0.615-0.745-0.788-1.203l-0.008-0.023c-0.147-0.375-0.32-0.941-0.367-1.979-0.049-1.125-0.063-1.464-0.063-4.309 0-2.847 0.013-3.188 0.063-4.309 0.047-1.043 0.221-1.605 0.367-1.98 0.171-0.463 0.443-0.883 0.8-1.225 0.347-0.355 0.763-0.625 1.227-0.796 0.373-0.147 0.941-0.32 1.979-0.367 1.125-0.049 1.463-0.063 4.309-0.063 2.851 0 3.187 0.013 4.309 0.063 1.041 0.047 1.604 0.221 1.98 0.367 0.461 0.171 0.883 0.441 1.224 0.796 0.355 0.347 0.627 0.763 0.796 1.227 0.147 0.373 0.321 0.94 0.368 1.979 0.049 1.125 0.061 1.463 0.061 4.309s-0.012 3.18-0.061 4.304z"></path>
<path fill="#f4f4fd" d="M16.040 5.188c-2.975 0.068-5.36 2.495-5.36 5.48s2.386 5.412 5.354 5.48l0.006 0c2.975-0.068 5.36-2.495 5.36-5.48s-2.386-5.412-5.354-5.48l-0.006-0zM16.040 14.224c-1.964 0-3.556-1.592-3.556-3.556s1.592-3.556 3.556-3.556v0c1.964 0 3.556 1.592 3.556 3.556s-1.592 3.556-3.556 3.556v0zM23.016 4.972c0 0.707-0.573 1.28-1.28 1.28s-1.28-0.573-1.28-1.28v0c0-0.707 0.573-1.28 1.28-1.28s1.28 0.573 1.28 1.28v0z"></path>
</svg>
